<svg width="889" height="660" viewBox="0 0 889 660" fill="none" xmlns="http://www.w3.org/2000/svg">
<g id="undraw_Ride_a_bicycle_2yok 1" clip-path="url(#clip0)">
<path id="Vector" d="M176.279 97.0519C171.673 102.643 169.899 110.504 167.916 117.895C151.946 177.456 112.594 225.364 67.7781 259.584C48.7996 274.079 25.6942 293.518 29.8463 319.507C32.082 333.464 41.8907 343.738 49.1778 355.106C64.4666 378.909 69.4255 411.262 62.1384 439.756C53.851 472.177 30.6868 502.428 37.8562 535.211C42.2773 555.389 57.2887 569.75 71.7201 582.093C94.2344 601.336 117.466 619.362 141.415 636.172C157.468 647.439 174.547 658.403 193.257 659.832C209.731 661.093 225.868 654.829 241.51 648.649C255.177 643.243 269.188 637.618 280.224 626.789C287.427 619.718 293.167 610.595 301.169 604.811C319.963 591.224 344.102 599.833 365.652 605.652C416.503 619.306 470.925 614.32 519.313 591.577C593.538 556.684 650.112 483.41 722.715 444.095C753.931 427.186 787.887 416.693 816.792 394.917C833.077 382.518 847.071 367.37 858.145 350.154C879.998 316.43 891.816 273.432 888.403 231.342C884.991 189.252 865.869 148.693 835.838 124.932C803.689 99.4986 763.084 94.7481 726.506 79.4795C688.733 63.7063 655.13 36.5994 617.719 19.6744C587.447 6.01721 554.503 -0.687051 521.303 0.0534918C488.104 0.794035 455.491 8.96059 425.858 23.954C385.144 44.5532 343.875 92.6126 298.53 96.2616C266.221 98.7839 201.511 66.4305 176.279 97.0519Z" fill="url(#paint0_linear)"/>
<path id="Vector_2" opacity="0.1" d="M567.449 527.232C573.395 527.232 578.216 522.409 578.216 516.461C578.216 510.513 573.395 505.691 567.449 505.691C561.502 505.691 556.682 510.513 556.682 516.461C556.682 522.409 561.502 527.232 567.449 527.232Z" fill="black"/>
<g id="bikeman">
<path id="Vector_3" d="M325.274 466.05L289.379 430.616L278.162 441.987L314.057 477.421L325.274 466.05Z" fill="#FF6363" fill-opacity="0.7"/>
<path id="Vector_4" d="M297.942 413.658C297.942 413.658 318.778 402.661 326.83 395.581C331.677 391.339 336.889 387.532 342.404 384.205L368.544 368.289L423.176 364.085L425.698 373.334C425.698 373.334 429.9 386.787 387.875 398.558C345.85 410.329 324.838 428.826 324.838 428.826C324.838 428.826 297.942 438.041 297.942 413.658Z" fill="#DB8B8B"/>
<path id="Vector_5" opacity="0.1" d="M327.065 427.001C325.577 428.137 324.838 428.792 324.838 428.792C324.838 428.792 297.942 438.041 297.942 413.658C297.942 413.658 299.244 412.969 301.304 411.817C303.384 415.206 306.298 418.005 309.768 419.946C313.238 421.888 317.147 422.907 321.123 422.907H323.972L327.065 427.001Z" fill="black"/>
<path id="Vector_6" opacity="0.05" d="M424.908 377.975C422.571 382.927 414.511 391.066 387.875 398.524C353.743 408.084 333.47 422.066 327.065 427.001C325.577 428.137 324.838 428.792 324.838 428.792C324.838 428.792 297.942 438.041 297.942 413.658C297.942 413.658 299.244 412.969 301.304 411.817C307.548 408.395 320.77 400.887 326.804 395.548C331.651 391.304 336.862 387.497 342.379 384.172L368.519 368.256L378.252 367.507L423.151 364.052L425.673 373.3C425.673 373.3 426.261 375.108 424.908 377.975Z" fill="black"/>
<path id="Vector_7" d="M298.362 408.193L276.088 422.907L341.311 477.558C341.311 477.558 350.893 471.672 345.85 464.946C345.85 464.946 329.04 450.653 328.2 430.474L323.157 423.748H320.307C315.489 423.748 310.79 422.252 306.859 419.466C302.928 416.679 299.958 412.74 298.362 408.193V408.193Z" fill="#ABB1D1"/>
<path id="Vector_8" opacity="0.1" d="M424.908 377.975C411.46 371.476 378.63 370.778 378.63 370.778L378.277 367.507L423.176 364.052L425.698 373.3C425.698 373.3 426.261 375.108 424.908 377.975Z" fill="black"/>
<path id="Vector_9" d="M378.63 369.097C378.63 369.097 418.133 369.937 428.219 378.345L423.176 276.61H368.544L378.63 369.097Z" fill="#ABB1D1"/>
<path id="Vector_10" opacity="0.05" d="M378.63 368.676C378.63 368.676 418.133 369.517 428.219 377.925L423.176 276.19H368.544L378.63 368.676Z" fill="black"/>
<path id="Vector_11" d="M410.367 306.845C410.367 306.845 509.252 303.482 511.27 316.27C513.287 329.058 412.384 323.669 412.384 323.669C412.384 323.669 404.316 315.589 410.367 306.845Z" fill="#535461"/>
<path id="Vector_12" opacity="0.05" d="M410.367 306.845C410.367 306.845 509.252 303.482 511.27 316.27C513.287 329.058 412.384 323.669 412.384 323.669C412.384 323.669 404.316 315.589 410.367 306.845Z" fill="black"/>
<path id="Vector_13" d="M330.318 357.99H312.827V510.071H330.318V357.99Z" fill="#FF6363"/>
<path id="Vector_14" opacity="0.1" d="M330.318 357.981V369.693C324.501 370.45 318.551 370.929 312.827 371.114V357.981H330.318Z" fill="black"/>
<path id="Vector_15" d="M329.006 345.378C326.552 345.188 324.111 344.86 321.694 344.394C312.213 342.578 288.309 338.769 281.879 345.235C273.811 353.307 276.5 367.44 298.026 369.458C319.551 371.476 356.55 366.095 363.955 358.015C363.955 357.981 350.565 347.034 329.006 345.378Z" fill="#535461"/>
<path id="Vector_16" d="M325.611 399.71L509.261 342.511L515.312 356.645L326.956 421.242L325.611 399.71Z" fill="#FF6363"/>
<path id="Vector_17" d="M380.101 489.884L512.623 359.335L520.019 370.097L393.549 501.991L380.101 489.884Z" fill="#FF6363"/>
<path id="Vector_18" opacity="0.1" d="M549.336 445.49C545.137 446.577 541.042 448.031 537.098 449.837L529.063 427.38C533.28 425.541 537.622 424.004 542.057 422.781L549.336 445.49Z" fill="black"/>
<path id="Vector_19" d="M571.819 511.416L562.406 516.797L496.729 333.229L493.787 325.014L509.261 316.262L513.136 328.352L571.819 511.416Z" fill="#FF6363"/>
<path id="Vector_20" opacity="0.1" d="M513.136 328.352L496.729 333.229L493.787 325.014L509.261 316.262L513.136 328.352Z" fill="black"/>
<path id="Vector_21" d="M413.057 342.511L505.218 310.881C505.218 310.881 521.364 312.898 515.304 326.359L422.479 353.946C422.479 353.946 408.358 355.291 413.057 342.511Z" fill="#535461"/>
<path id="Vector_22" opacity="0.1" d="M309.129 517.806C309.128 522.964 308.729 528.114 307.935 533.21C299.866 532.629 291.528 531.789 283.359 530.948C285.174 520.95 284.948 510.688 282.695 500.78C290.654 499.099 298.782 497.493 306.716 496.038C308.324 503.183 309.133 510.483 309.129 517.806V517.806Z" fill="black"/>
<path id="Vector_23" opacity="0.1" d="M330.318 492.179V510.063H312.827V494.929C318.878 493.878 324.762 492.944 330.318 492.179Z" fill="black"/>
<path id="Vector_24" d="M217.304 517.495C217.304 517.495 358.575 480.501 370.006 494.617C381.437 508.734 393.549 527.585 357.928 534.311C322.308 541.037 214.639 522.868 214.639 522.868L217.304 517.495Z" fill="#FF6363"/>
<path id="Vector_25" opacity="0.1" d="M286.788 455.176L268.835 471.614C265.656 467.531 262.061 463.789 258.11 460.448L274.87 442.934C279.185 446.667 283.172 450.762 286.788 455.176V455.176Z" fill="black"/>
<path id="Vector_26" d="M212.597 510.071L318.206 399.71L321.576 425.278L217.976 520.161L212.597 510.071Z" fill="#FF6363"/>
<path id="Vector_27" opacity="0.1" d="M211.252 528.24C217.198 528.24 222.019 523.418 222.019 517.47C222.019 511.522 217.198 506.7 211.252 506.7C205.306 506.7 200.485 511.522 200.485 517.47C200.485 523.418 205.306 528.24 211.252 528.24Z" fill="black"/>
<path id="Vector_28" opacity="0.1" d="M376.73 528.24C388.618 528.24 398.256 518.6 398.256 506.708C398.256 494.816 388.618 485.175 376.73 485.175C364.842 485.175 355.205 494.816 355.205 506.708C355.205 518.6 364.842 528.24 376.73 528.24Z" fill="black"/>
<path id="Vector_29" d="M378.083 528.24C389.972 528.24 399.609 518.6 399.609 506.708C399.609 494.816 389.972 485.175 378.083 485.175C366.195 485.175 356.558 494.816 356.558 506.708C356.558 518.6 366.195 528.24 378.083 528.24Z" fill="#535461"/>
<path id="Vector_30" d="M372.336 505.09L372.33 505.095C369.802 506.986 369.285 510.569 371.175 513.098L388.259 535.951C390.15 538.48 393.732 538.997 396.259 537.106L396.266 537.1C398.794 535.209 399.311 531.627 397.42 529.098L380.336 506.245C378.446 503.716 374.864 503.199 372.336 505.09Z" fill="#6C63FF"/>
<path id="Vector_31" d="M475.288 207.666L473.287 232.982C473.057 236.189 473.099 239.409 473.413 242.609C473.674 245.442 473.413 250.403 470.64 257.97C467.078 267.636 465.238 277.852 465.202 288.154V316.968L445.87 313.605C445.87 313.605 446.711 273.247 443.349 266.521C439.987 259.794 445.87 200.099 445.87 200.099L475.288 207.666Z" fill="#DB8B8B"/>
<path id="Vector_32" opacity="0.05" d="M474.296 220.21L473.287 232.982C473.06 236.186 473.105 239.404 473.422 242.6C473.682 245.434 473.422 250.394 470.648 257.97C467.087 267.636 465.246 277.852 465.21 288.154V316.968L445.878 313.605C445.878 313.605 446.719 273.247 443.357 266.521C440.978 261.753 443.231 230.417 444.752 212.534C445.382 205.177 445.878 200.099 445.878 200.099L475.296 207.666L474.296 220.21Z" fill="black"/>
<path id="Vector_33" d="M379.487 401.046L372.217 442.413C371.3 447.936 369.894 453.367 368.014 458.64C363.753 470.294 366.476 486.63 368.544 495.542C369.46 499.477 370.225 501.966 370.225 501.966L348.372 513.737L341.648 508.692V505.329L340.807 430.499C335.764 418.728 337.445 401.072 340.807 394.345C341.763 392.135 342.435 389.813 342.808 387.434C344.489 378.421 345.01 365.759 345.01 365.759C345.01 365.759 358.458 343.057 374.427 358.192C380.311 363.766 382.547 371.056 383.017 378.034C383.841 389.982 379.487 401.046 379.487 401.046Z" fill="#DB8B8B"/>
<path id="Vector_34" opacity="0.1" d="M383.017 378.009C371.359 384.937 351.078 386.896 342.808 387.409C344.489 378.396 345.01 365.733 345.01 365.733C345.01 365.733 358.458 343.032 374.427 358.166C380.311 363.741 382.547 371.03 383.017 378.009Z" fill="black"/>
<path id="Vector_35" d="M411.409 357.326C402.472 362.087 394.026 367.719 386.194 374.141C372.746 385.071 339.126 385.912 339.126 385.912V373.3C339.967 358.166 325.678 341.351 306.347 294.267C294 264.2 297.42 247.183 301.505 238.775C303.825 234.024 306.347 232.048 306.347 232.048L411.409 252.227L415.166 263.494L423.176 287.54C423.176 287.54 393.759 289.222 388.716 291.744C383.673 294.267 387.035 316.968 387.035 316.968C381.992 340.51 411.409 357.326 411.409 357.326Z" fill="#ABB1D1"/>
<path id="Vector_36" opacity="0.1" d="M475.288 207.666L474.296 220.21C459.671 224.414 449.232 211.029 449.232 211.029C447.707 211.438 446.208 211.941 444.744 212.534C445.374 205.177 445.87 200.099 445.87 200.099L475.288 207.666Z" fill="black"/>
<path id="Vector_37" opacity="0.1" d="M415.166 263.494C414.771 267.42 414.771 269.884 414.771 269.884C414.771 269.884 395.44 285.859 362.66 261.476C329.881 237.093 300.463 243.819 300.463 243.819C300.463 243.819 300.808 241.869 301.505 238.775C303.825 234.024 306.347 232.048 306.347 232.048L411.409 252.227L415.166 263.494Z" fill="black"/>
<path id="Vector_38" d="M486.618 174.833C484.424 191.943 483.693 213.509 483.693 213.509C464.361 228.643 449.232 209.305 449.232 209.305C430.976 214.207 422.395 230.19 418.352 244.139C416.187 251.684 414.984 259.473 414.771 267.319C414.771 267.319 409.661 271.523 400.248 272.364C391.347 273.112 378.588 270.792 362.66 258.912C329.881 234.529 300.463 241.255 300.463 241.255C300.463 241.255 306.347 207.624 319.795 197.534C333.243 187.445 343.329 174.833 360.139 136.157C376.949 97.4807 411.409 106.729 411.409 106.729C411.409 106.729 413.09 99.1623 444.189 106.729C451.764 108.715 458.775 112.431 464.672 117.584C481.306 131.575 489.374 153.275 486.618 174.833Z" fill="white"/>
<path id="Vector_39" d="M455.427 125.689C455.385 126.807 455.292 128.052 455.141 129.439C453.46 144.573 451.779 142.892 433.288 146.255C421.79 148.348 415.814 138.738 412.939 131.171C411.899 128.43 411.114 125.598 410.594 122.713L450.938 115.986C450.938 115.986 455.771 114.633 455.427 125.689Z" fill="#DB8B8B"/>
<path id="Vector_40" opacity="0.05" d="M418.352 244.181C416.187 251.726 414.984 259.515 414.771 267.361C414.771 267.361 409.661 271.565 400.248 272.406C399.982 271.871 399.779 271.306 399.642 270.725C397.961 263.158 385.354 249.705 385.354 249.705C376.949 242.138 375.268 228.685 375.268 228.685L361.399 187.907L356.777 184.124C356.777 184.124 376.108 168.99 392.918 181.601C409.728 194.213 404.685 221.118 404.685 221.118L408.047 230.367C411.536 233.31 415.082 238.497 418.352 244.181Z" fill="black"/>
<path id="Vector_41" d="M359.298 183.283L377.789 227.845C377.789 227.845 379.47 241.297 387.875 248.864C387.875 248.864 400.483 262.317 402.164 269.884C403.845 277.451 427.379 297.63 427.379 297.63C427.379 297.63 449.232 317.809 450.913 325.376C450.913 325.376 471.085 331.261 468.564 343.032C468.564 343.032 483.693 327.898 468.564 313.605C453.435 299.311 433.263 269.884 433.263 269.884C433.263 269.884 421.495 238.775 410.569 229.526L407.207 220.277C407.207 220.277 412.25 193.372 395.44 180.761C378.63 168.149 359.298 183.283 359.298 183.283Z" fill="#DB8B8B"/>
<path id="Vector_42" opacity="0.1" d="M370.225 501.941L348.372 513.712L341.648 508.667V505.304C349.199 504.767 356.535 502.553 363.123 498.821C365.14 497.678 367.039 496.551 368.561 495.559C369.443 499.452 370.225 501.941 370.225 501.941Z" fill="black"/>
<path id="Vector_43" opacity="0.1" d="M395.44 147.97L407.207 194.213C407.207 194.213 371.065 200.099 363.501 194.213C355.936 188.328 341.648 186.646 341.648 186.646C341.648 186.646 356.777 142.925 365.182 137.88C373.587 132.836 395.44 147.97 395.44 147.97Z" fill="black"/>
<path id="Vector_44" d="M395.44 146.288L407.207 192.532C407.207 192.532 371.065 198.417 363.501 192.532C355.936 186.646 341.648 184.964 341.648 184.964C341.648 184.964 356.777 141.244 365.182 136.199C373.587 131.154 395.44 146.288 395.44 146.288Z" fill="white"/>
<path id="Vector_45" opacity="0.1" d="M455.427 124.848C453.072 128.099 450.078 130.833 446.629 132.884C443.179 134.934 439.346 136.256 435.367 136.77C431.387 137.283 427.344 136.977 423.487 135.869C419.63 134.762 416.041 132.877 412.939 130.33C411.899 127.589 411.114 124.758 410.594 121.872L450.938 115.146C450.938 115.146 455.771 113.792 455.427 124.848Z" fill="black"/>
<path id="Vector_46" d="M460.999 106.771C460.999 114.576 457.9 122.061 452.383 127.58C446.866 133.099 439.384 136.199 431.582 136.199C423.779 136.199 416.297 133.099 410.78 127.58C405.263 122.061 402.164 114.576 402.164 106.771C402.164 106.284 402.164 105.796 402.164 105.308C402.358 97.5038 405.643 90.0958 411.297 84.7143C416.951 79.3327 424.511 76.4184 432.313 76.6124C440.115 76.8064 447.52 80.0928 452.9 85.7488C458.28 91.4047 461.193 98.9667 460.999 106.771V106.771Z" fill="#DB8B8B"/>
<path id="Vector_47" opacity="0.05" d="M323.577 197.156C323.577 197.156 345.43 203.041 352.154 218.176C358.878 233.31 377.066 236.076 377.066 236.076" fill="black"/>
<path id="Vector_48" d="M405.946 530.107H355.516V546.082H405.946V530.107Z" fill="#FF6363" fill-opacity="0.7"/>
<path id="Vector_49" d="M363.089 500.461C367.602 497.939 371.561 495.416 371.906 494.374C371.906 494.374 383.295 506.397 393.439 510.13C396.851 511.391 400.117 513.014 403.181 514.973C407.199 517.495 412.931 520.463 418.133 520.463C418.133 520.463 429.901 530.553 407.207 532.234C384.513 533.916 331.562 528.03 331.562 528.03L334.924 507.011C344.747 507.587 354.527 505.312 363.089 500.461Z" fill="#ABB1D1"/>
</g>
<g id="wheel1">
<path id="Vector_50" d="M214.522 602.835L209.252 520.488L209.142 520.312L203.83 522.162L179.389 593.502L140.515 565.933L202.435 521.027L202.494 520.85L202.847 520.724L206.839 517.823L141.919 481.409L126.017 498.897L128.538 515.292L203.192 516.654V518.336L127.143 516.974L124.268 498.359L146.037 474.43L178.607 436.427L179.187 437.999L186.079 430.432L211.681 435.023V434.005L213.362 434.056V435.325L251.487 442.152L215.942 513.291L210.756 517.05V517.47V517.941L292.957 489.287L283.199 565.975L213.437 521.523L210.983 520.144L252.117 586.465L214.522 602.835ZM211.16 523.515L216.077 600.346L249.739 585.733L211.16 523.515ZM143.432 565.916L178.556 590.829L201.536 523.784L143.432 565.916ZM212.622 519.118L214.379 520.102L281.913 563.15L290.991 491.792L212.622 519.118ZM206.654 513.064L208.764 516.469L209.134 516.2L211.655 436.721L186.659 432.248L179.8 439.815L206.654 513.064ZM143.264 480.223L206.167 515.536L205.074 513.745L178.531 441.211L147.273 475.574L143.264 480.223ZM213.362 437.015L210.84 514.973L214.639 512.215L249.024 443.422L213.362 437.015Z" fill="#535461"/>
<path id="Vector_51" d="M306.716 496.022C303.345 481.039 296.521 467.052 286.788 455.176C283.175 450.763 279.19 446.667 274.878 442.934C258.298 428.615 237.434 420.207 215.561 419.032C193.688 417.856 172.044 423.979 154.025 436.439C136.007 448.899 122.634 466.991 116.006 487.876C109.378 508.761 109.87 531.256 117.404 551.831C124.938 572.406 139.089 589.896 157.634 601.557C176.18 613.217 198.071 618.388 219.871 616.257C241.672 614.127 262.149 604.815 278.087 589.784C294.026 574.754 304.524 554.854 307.935 533.21C308.729 528.114 309.128 522.964 309.129 517.806C309.134 510.478 308.325 503.171 306.716 496.022ZM209.899 592.165C194.575 592.149 179.627 587.412 167.089 578.599C154.551 569.785 145.031 557.323 139.823 542.906C134.615 528.489 133.972 512.817 137.981 498.022C141.991 483.227 150.458 470.026 162.232 460.214C174.006 450.402 188.515 444.456 203.786 443.183C219.058 441.911 234.35 445.375 247.584 453.103C260.818 460.831 271.352 472.449 277.753 486.378C284.154 500.306 286.111 515.868 283.359 530.948C280.207 548.136 271.13 563.675 257.708 574.86C244.286 586.045 227.368 592.169 209.899 592.165V592.165Z" fill="#535461"/>
<path id="Vector_52" d="M209.899 528.24C215.845 528.24 220.666 523.418 220.666 517.47C220.666 511.522 215.845 506.7 209.899 506.7C203.952 506.7 199.132 511.522 199.132 517.47C199.132 523.418 203.952 528.24 209.899 528.24Z" fill="#535461"/>
</g>
<g id="wheel">
<path id="Vector_53" d="M572.736 603.171L567.474 520.858L567.365 520.682L562.053 522.532L537.603 593.839L498.729 566.261L560.666 521.354L560.725 521.178L561.078 521.052L565.07 518.151L500.15 481.737L484.239 499.225L486.761 515.62L561.397 516.949V518.63L485.348 517.268L482.491 498.678L504.251 474.758L536.796 436.78L537.376 438.352L544.268 430.785L569.937 435.384V434.367L571.618 434.417V435.687L609.743 442.514L574.164 513.686L568.978 517.445V517.865V518.336L651.188 489.682L641.43 566.37L571.668 521.918L569.214 520.539L610.348 586.868L572.736 603.171ZM569.374 523.852L574.29 600.683L607.953 586.07L569.374 523.852ZM501.654 566.261L536.779 591.173L559.758 524.129L501.654 566.261ZM570.844 519.463L572.601 520.446L640.135 563.495L649.213 492.137L570.844 519.463ZM564.877 513.409L566.986 516.814L567.356 516.545L569.878 437.066L544.881 432.576L538.023 440.143L564.877 513.409ZM501.511 480.576L564.415 515.889L563.322 514.098L536.779 441.564L505.512 475.935L501.511 480.576ZM571.584 437.368L569.063 515.301L572.862 512.543L607.247 443.75L571.584 437.368Z" fill="#535461"/>
<path id="Vector_54" d="M568.457 419.224C559.537 419.214 550.656 420.413 542.057 422.789C537.622 424.012 533.28 425.549 529.063 427.388C506.596 437.131 488.54 454.862 478.387 477.153C468.234 499.443 466.706 524.708 474.098 548.061C481.491 571.413 497.278 591.193 518.407 603.574C539.536 615.955 564.504 620.057 588.482 615.087C612.46 610.117 633.743 596.427 648.214 576.667C662.685 556.907 669.315 532.48 666.823 508.112C664.331 483.744 652.892 461.167 634.721 444.747C616.549 428.328 592.936 419.234 568.449 419.224H568.457ZM568.121 592.502C551.075 592.495 534.544 586.655 521.274 575.953C508.003 565.25 498.792 550.328 495.17 533.666C491.547 517.003 493.732 499.603 501.361 484.354C508.989 469.105 521.603 456.925 537.107 449.837C541.05 448.031 545.145 446.577 549.344 445.49C559.609 442.825 570.323 442.377 580.774 444.177C591.225 445.976 601.173 449.981 609.956 455.926C618.739 461.87 626.155 469.618 631.712 478.653C637.269 487.688 640.838 497.804 642.183 508.326C643.528 518.849 642.616 529.537 639.51 539.68C636.404 549.823 631.174 559.187 624.168 567.151C617.162 575.114 608.541 581.494 598.879 585.865C589.216 590.236 578.734 592.499 568.13 592.502H568.121Z" fill="#535461"/>
<path id="Vector_55" d="M568.121 528.577C574.068 528.577 578.888 523.755 578.888 517.806C578.888 511.858 574.068 507.036 568.121 507.036C562.175 507.036 557.354 511.858 557.354 517.806C557.354 523.755 562.175 528.577 568.121 528.577Z" fill="#535461"/>
</g>
<g id="hat">
<path id="Vector_56" opacity="0.1" d="M460.999 106.771C461.002 109.484 460.628 112.183 459.89 114.792C457.616 115.288 455.244 115.071 453.098 114.17C449.955 112.934 447.257 110.807 444.239 109.277C435.742 104.972 425.631 105.821 416.217 107.242C411.544 107.948 406.24 108.604 402.567 105.628C402.441 105.528 402.32 105.422 402.206 105.308C402.4 97.5038 405.685 90.0958 411.339 84.7143C416.993 79.3327 424.553 76.4184 432.355 76.6124C440.157 76.8064 447.562 80.0928 452.942 85.7487C458.322 91.4047 461.235 98.9667 461.041 106.771H460.999Z" fill="black"/>
<path id="Vector_57" d="M382.113 86.5393C383.903 92.1558 392.501 92.3323 396.914 96.469C399.208 98.6214 400.276 101.8 402.797 103.717C406.302 106.39 411.362 105.802 415.825 105.163C424.81 103.885 434.459 103.12 442.562 106.996C445.436 108.366 448.016 110.283 451.017 111.401C454.018 112.52 457.741 112.654 460.179 110.67C462.129 109.081 462.843 106.466 464.608 104.717C465.978 103.338 467.886 102.565 469.449 101.354C472.879 98.7643 474.358 94.5436 475.333 90.5078C477.35 82.2009 477.93 73.2465 474.492 65.3683C471.055 57.4902 462.784 51.075 453.757 51.4869C450.992 51.6131 448.294 52.3277 445.537 52.6304C438.351 53.3619 431.248 50.9488 424.037 50.5369C421.945 50.2822 419.823 50.5718 417.876 51.3776C416.408 52.1939 415.142 53.3287 414.169 54.6988C410.868 59.025 408.607 64.0541 407.563 69.3957C406.723 73.4231 406.681 77.0721 401.747 77.6942C396.141 78.4341 378.322 74.659 382.113 86.5393Z" fill="#472727"/>
</g>
</g>
<defs>
<linearGradient id="paint0_linear" x1="809.404" y1="124.436" x2="59.582" y2="482.415" gradientUnits="userSpaceOnUse">
<stop stop-color="#0FB7DC"/>
<stop offset="1" stop-color="#DF4FD9"/>
</linearGradient>
<clipPath id="clip0">
<rect width="889" height="660" fill="white"/>
</clipPath>
</defs>
</svg>
